<svg width="260" height="260" viewBox="0 0 260 260" fill="none" xmlns="http://www.w3.org/2000/svg">
<g clip-path="url(#clip0_76_516)">
<ellipse cx="130" cy="280.5" rx="55" ry="49.5" fill="black"/>
<ellipse cx="137.5" cy="250" rx="1.5" ry="19" fill="black"/>
<path fillRule="evenodd" clipRule="evenodd" d="M56.164 135C56.0552 136.487 56 137.988 56 139.5C56 176.779 89.5786 207 131 207C172.421 207 206 176.779 206 139.5C206 137.988 205.945 136.487 205.836 135H56.164Z" fill="black"/>
<path d="M128 200.5H134.5L146 205.617L156.5 243.79L163 266H97L114.5 205.617L128 200.5Z" fill="black"/>
<rect x="92.6387" y="27" width="10" height="65.0051" transform="rotate(21.3237 92.6387 27)" fill="black"/>
<rect x="35" y="34.9549" width="10" height="65.0051" transform="rotate(-29.7021 35 34.9549)" fill="black"/>
<circle cx="32.6178" cy="24.6179" r="20" transform="rotate(-19.9215 32.6178 24.6179)" fill="black"/>
<circle cx="98.8201" cy="26.8201" r="22.5" transform="rotate(-19.9215 98.8201 26.8201)" fill="black"/>
<rect x="69" y="93.8699" width="13" height="150.043" transform="rotate(-22 69 93.8699)" fill="black"/>
<circle cx="71.8538" cy="83.8538" r="15.5" transform="rotate(-19.9215 71.8538 83.8538)" fill="black"/>
<rect x="230.086" y="69" width="10" height="65.0051" transform="rotate(50.3976 230.086 69)" fill="black"/>
<rect x="191.757" y="44.3894" width="10" height="65.0051" transform="rotate(15.6087 191.757 44.3894)" fill="black"/>
<circle cx="201.304" cy="36.3045" r="25" transform="rotate(25.3894 201.304 36.3045)" fill="black"/>
<circle cx="237.643" cy="71.6436" r="20" transform="rotate(25.3894 237.643 71.6436)" fill="black"/>
<rect x="171.424" y="109" width="13" height="107.911" transform="rotate(22 171.424 109)" fill="black"/>
<circle cx="182.911" cy="104.979" r="15.5" transform="rotate(25.3894 182.911 104.979)" fill="black"/>
<rect width="6.63533" height="42.6439" transform="matrix(0.836387 0.548139 -0.556894 0.830583 152.747 70.9985)" fill="black"/>
<rect width="6.6238" height="42.7196" transform="matrix(0.954557 -0.298029 0.310742 0.950494 115.879 74.2352)" fill="black"/>
<circle cx="15" cy="15" r="15" transform="matrix(0.997513 0.0704831 -0.0605705 0.998164 103.816 54.9992)" fill="black"/>
<circle cx="15" cy="15" r="15" transform="matrix(0.997513 0.0704831 -0.0605705 0.998164 143.815 56.9991)" fill="black"/>
<rect width="10" height="98.4459" transform="matrix(0.999508 0.0313491 -0.0205072 0.99979 127.018 114.999)" fill="black"/>
<path d="M52.0001 152.505L50.5 138L134.476 215.583L130.513 220.087L52.0001 152.505Z" fill="black"/>
<path d="M214.001 134L208.315 151.419L128.964 222.771L125.001 218.266L214.001 134Z" fill="black"/>
<ellipse cx="10.2873" cy="10.1656" rx="10.2873" ry="10.1656" transform="matrix(0.997513 0.0704831 -0.0605705 0.998164 123.23 98.9985)" fill="black"/>
<path fillRule="evenodd" clipRule="evenodd" d="M37.5004 125.964C29.5004 119.664 21.0002 128.214 21.0004 156.113C21.0006 176.842 25.9989 185.813 32.9995 185.813C40.0001 185.813 56.0663 166.104 59.4999 156.113C61.0001 145.763 43.7162 130.859 37.5004 125.964ZM30.9942 155.734C30.9973 156.366 31.0002 156.947 31.0002 157.464C31.0002 163.764 32.0002 170.964 36.2639 173.28C40.9603 174.889 49.7765 163.934 52.0004 157.464C54.2243 150.993 39.7389 137.702 35.5002 135.414C30.8806 132.919 30.9559 148.061 30.9942 155.734Z" fill="black"/>
<path fillRule="evenodd" clipRule="evenodd" d="M223.091 183.85C231.091 190.15 239.592 181.6 239.591 153.7C239.591 132.971 234.593 124 227.592 124C220.592 124 204.525 143.71 201.092 153.7C199.592 164.05 216.876 178.955 223.091 183.85ZM229.598 154.079C229.594 153.448 229.592 152.866 229.592 152.35C229.592 146.05 228.592 138.85 224.328 136.533C219.632 134.925 210.815 145.879 208.591 152.35C206.367 158.821 220.853 172.111 225.092 174.4C229.711 176.894 229.636 161.752 229.598 154.079Z" fill="black"/>
</g>
<defs>
<clipPath id="clip0_76_516">
<rect width="260" height="260" fill="white"/>
</clipPath>
</defs>
</svg>
